# xmcd
#
# Track frame offsets:
#	150
#	16567
#	28452
#	44852
#
# Disc length: 821 seconds
#
# Revision: 0
# Processed by: cddbd v1.5.2PL0 Copyright (c) Steve Scherf et al.
# Submitted via: audiograbber 1.83.01
#
DISCID=2f033304
DTITLE=Bino Arico - Avanti, Avanti
DYEAR=2004
DGENRE=Pop
TTITLE0=Bino Arico - Avanti, Avanti...Dance-Version
TTITLE1=Bino Arico - Arrivederci Amore
TTITLE2=Bino Arico - Avanti, A..Dance-Edition
TTITLE3=Bino Arico - Avanti, A...Back-Track-Version
EXTD=2004 ?
EXTT0=
EXTT1=
EXTT2=
EXTT3=
PLAYORDER=
